<?xml version="1.0" standalone="no"?><!DOCTYPE svg PUBLIC "-//W3C//DTD SVG 1.1//EN" "http://www.w3.org/Graphics/SVG/1.1/DTD/svg11.dtd"><svg t="1513859140909" class="icon" style="" viewBox="0 0 1024 1024" version="1.1" xmlns="http://www.w3.org/2000/svg" p-id="6371" xmlns:xlink="http://www.w3.org/1999/xlink" width="200" height="200"><defs><style type="text/css"></style></defs><path d="M938.01835 796.878664 712.012723 708.804316C712.012723 708.804316 668.92842 692.068741 652.180782 675.610588 641.421768 665.032499 642.193715 640.076892 651.716408 608.197888 661.239101 576.318879 777.091487 446.782525 777.091487 329.108828 777.091487 147.345418 657.620598 0 510.245028 0 362.875484 0 243.404595 147.345418 243.404595 329.108828 243.404595 441.813115 346.63444 576.180173 359.383629 600.59903 372.138849 625.023923 369.03297 662.234189 358.973532 673.517885 343.860255 690.464538 288.629847 707.435315 288.629847 707.435315L84.890066 798.247665C37.288668 815.339059 0 860.232612 0 910.885617L0 934.900408C0 990.179062 44.893553 1023.993969 100.069683 1023.993969L441.7709 1023.993969 558.89579 1023.993969 922.844764 1023.993969C978.020895 1023.993969 1022.908416 990.179062 1022.908416 934.900408L1022.908416 910.885617C1022.908416 860.232612 985.625784 813.964027 938.01835 796.878664" p-id="6372" fill="#ffffff"></path></svg>