<?xml version="1.0" standalone="no"?><!DOCTYPE svg PUBLIC "-//W3C//DTD SVG 1.1//EN" "http://www.w3.org/Graphics/SVG/1.1/DTD/svg11.dtd"><svg t="1513859182215" class="icon" style="" viewBox="0 0 1024 1024" version="1.1" xmlns="http://www.w3.org/2000/svg" p-id="7138" xmlns:xlink="http://www.w3.org/1999/xlink" width="200" height="200"><defs><style type="text/css"></style></defs><path d="M363.82078596740746 199.15917084444447h295.54648678399997c8.119409170962962 0 13.965382997333332-5.84597504 13.965384210962963-13.965382997333332V143.94719042370372c0-8.119409170962962-5.84597504-13.965382997333332-13.965384210962963-13.965384210962963h-54.56242763851852v-32.47763547022222c0-8.119409170962962-5.84597504-13.965382997333332-13.965384210962963-13.965382997333332H433.16053909807414c-8.119409170962962 0-13.965382997333332 5.84597504-13.965384210962963 13.965382997333332v32.47763547022222h-55.211980420740744c-7.3074678897777785 0-13.965382997333332 5.84597504-13.965384210962963 13.965384210962963v41.2465974234074c-0.16238849896296298 7.3074678897777785 6.495526608592592 13.965382997333332 13.802995711999998 13.965382997333332z" p-id="7139" fill="#ffffff"></path><path d="M825.9775462210371 129.81941892740736h-107.66336364088887v118.70575972503703H301.95088922548143v-118.70575972503703h-103.92843544651852c-31.01614262044444 0-56.835862983111106 25.819720362666665-56.835862983111106 56.835862983111106v697.457232858074c0 31.01614262044444 25.819720362666665 56.835862983111106 56.835862983111106 56.835862983111106H826.1399335063704c31.01614262044444 0 56.835862983111106-25.819720362666665 56.835862983111106-56.835862983111106v-698.2691741392593c-0.16238849896296298-31.01614262044444-25.98210886162963-56.02392170192593-56.998250268444444-56.02392170192593z m-70.63885869511111 586.8708823039999H268.66131247407407v-66.41676621748148h486.51498655288884v66.41676621748148z m0-193.89148668207406H268.66131247407407v-66.41676621748148h486.51498655288884v66.41676621748148z" p-id="7140" fill="#ffffff"></path></svg>